<?xml version="1.0" encoding="UTF-8" standalone="no"?>
<!-- Generator: Adobe Illustrator 16.0.0, SVG Export Plug-In . SVG Version: 6.00 Build 0)  -->

<svg
   version="1.1"
   id="Layer_1"
   x="0px"
   y="0px"
   width="1000px"
   height="313.894px"
   viewBox="0 0 1000 313.894"
   enable-background="new 0 0 1000 313.894"
   xml:space="preserve"
   sodipodi:docname="Etoro.svg"
   inkscape:version="1.2 (dc2aedaf03, 2022-05-15)"
   xmlns:inkscape="http://www.inkscape.org/namespaces/inkscape"
   xmlns:sodipodi="http://sodipodi.sourceforge.net/DTD/sodipodi-0.dtd"
   xmlns="http://www.w3.org/2000/svg"
   xmlns:svg="http://www.w3.org/2000/svg"><defs
   id="defs21" /><sodipodi:namedview
   id="namedview19"
   pagecolor="#ffffff"
   bordercolor="#000000"
   borderopacity="0.25"
   inkscape:showpageshadow="2"
   inkscape:pageopacity="0.0"
   inkscape:pagecheckerboard="0"
   inkscape:deskcolor="#d1d1d1"
   showgrid="false"
   inkscape:zoom="0.92630988"
   inkscape:cx="501.45206"
   inkscape:cy="157.61464"
   inkscape:window-width="1920"
   inkscape:window-height="1014"
   inkscape:window-x="-9"
   inkscape:window-y="-9"
   inkscape:window-maximized="1"
   inkscape:current-layer="g16" />
<g
   id="g16">
	<path
   fill="#72BF44"
   d="M997.591,115.995c-5.8-21.599-50.859-71.732-83.134-111.88C914.1,3.67,911.589,0,908.2,0   c-3.489,0-5.848,3.389-4.701,6.058c1.183,2.781,32.784,67.612,26.896,89.111c-5.9,21.481-34.593,17.291-39.323,17.291   c-2.265,0-0.742,1.867,2.055,4.36c15.688,14.037,26.552,33.657,26.552,59.878v19.439c0,0.381,0.327,0.891,0.959,0.803   C956.478,192.896,1012.277,170.722,997.591,115.995"
   id="path2"
   style="fill:#5aa001;fill-opacity:1" />
	<path
   fill="#72BF44"
   d="M855.871,241.835c0,18.461-24.899,29.025-41.118,29.025c-17.344,0-41.887-10.564-41.887-29.025v-65.131   c0-18.472,24.543-27.141,41.887-27.141c16.219,0,41.118,8.668,41.118,27.141V241.835z M814.753,109.217   c-38.469,0.369-83.357,22.624-83.357,67.488v68.238c0,45.621,44.889,67.127,83.357,67.494   c37.718-0.367,82.606-21.873,82.606-67.494v-68.238C897.359,131.84,852.471,109.586,814.753,109.217"
   id="path4"
   style="fill:#5aa001;fill-opacity:1" />
	<path
   fill="#72BF44"
   d="M566.081,241.835c0,18.461-24.906,29.025-41.125,29.025c-17.344,0-41.881-10.564-41.881-29.025v-65.131   c0-18.472,24.537-27.141,41.881-27.141c16.219,0,41.125,8.668,41.125,27.141V241.835z M524.956,109.217   c-38.457,0.369-83.346,22.624-83.346,67.488v68.238c0,45.621,44.889,67.127,83.346,67.494   c37.706-0.367,82.577-21.873,82.577-67.494v-68.238C607.533,131.84,562.662,109.586,524.956,109.217"
   id="path6"
   style="fill:#5aa001;fill-opacity:1" />
	<path
   fill="#72BF44"
   d="M106.849,116.82c2.815-2.511,4.32-4.378,2.06-4.378c-4.735,0-33.434,4.197-39.328-17.279   C63.646,73.664,95.277,8.833,96.477,6.064C97.618,3.372,95.236,0,91.777,0c-3.407,0-5.906,3.665-6.269,4.121   C53.227,44.269,8.198,94.396,2.374,115.995c-14.681,54.717,42.091,76.877,77.924,80.934c0.656,0.07,0.948-0.428,0.948-0.803   v-19.434C81.247,150.477,91.15,130.839,106.849,116.82"
   id="path8"
   style="fill:#5aa001;fill-opacity:1" />
	<path
   fill="#72BF44"
   d="M438.502,124.067c-30.707-8.324-53.394-11.789-86.301-11.789c-32.937-0.005-55.683,3.465-86.331,11.76   c-1.451,0.339-1.727,1.814-1.059,2.716c10.489,8.674,14.885,20.252,16.939,33.34c16.846-4.103,32.035-6.497,49.688-7.486v158.49   c0,0.557,0.392,0.914,1.019,0.914h39.463c0.685,0.059,1.018-0.258,1-0.879V152.637c16.986,1.013,31.163,3.383,47.892,7.457   c2.528-13.017,7.843-25.128,18.596-33.258C440.37,125.659,439.539,124.354,438.502,124.067"
   id="path10"
   style="fill:#5aa001;fill-opacity:1" />
	<path
   fill="#72BF44"
   d="M732.894,110.604c-2.938-0.41-11.643-1.662-19.321-1.381c-37.772,1.446-80.488,23.747-80.488,67.47v134.82   c-0.024,0.561,0.392,0.895,1.001,0.895h39.457c0.684,0.07,1.018-0.223,1.006-0.859v-3.523h0.012V176.693   c0-14.422,17.748-23.331,32.55-26.339c4.314-14.382,12.784-24.748,25.737-35.137C735.118,113.373,735.001,110.903,732.894,110.604"
   id="path12"
   style="fill:#5aa001;fill-opacity:1" />
	<path
   fill="#72BF44"
   d="M221.31,188.212c0,0.451-0.169,0.879-0.474,1.205c-0.292,0.324-0.755,0.541-1.252,0.541h-75.66v-13.758   c0-18.729,22.278-27.509,39.884-27.509c16.436,0,37.526,8.78,37.526,27.509L221.31,188.212z M183.808,107.765   c-39,0.387-81.934,22.945-81.934,68.436v69.229c0,46.27,42.934,68.08,81.934,68.465c27.932-0.279,59.75-11.863,74.905-36.342   c0.521-0.82,0.053-1.891-0.714-2.336c-13.369-7.656-21.113-11.904-34.341-19.355c-0.421-0.23-0.866-0.23-1.188,0.344   c-7.247,12.023-25.685,18.684-38.661,18.684c-17.606,0-39.884-10.711-39.884-29.459v-20.668h108.157   c5.765,0,10.459-4.695,10.459-10.473v-38.088C262.541,130.71,222.054,108.152,183.808,107.765"
   id="path14"
   style="fill:#5aa001;fill-opacity:1" />
</g>
</svg>
