<svg version="1.1" id="Layer_1" x="0" y="0" width="1000" height="313.894" xml:space="preserve" xmlns="http://www.w3.org/2000/svg"><g id="g16" fill="#72BF44"><path d="M997.591 115.995c-5.8-21.599-50.859-71.732-83.134-111.88C914.1 3.67 911.589 0 908.2 0c-3.489 0-5.848 3.389-4.701 6.058 1.183 2.781 32.784 67.612 26.896 89.111-5.9 21.481-34.593 17.291-39.323 17.291-2.265 0-.742 1.867 2.055 4.36 15.688 14.037 26.552 33.657 26.552 59.878v19.439c0 .381.327.891.959.803 35.84-4.044 91.639-26.218 76.953-80.945" id="path2" style="fill:#5aa001;fill-opacity:1"/><path d="M855.871 241.835c0 18.461-24.899 29.025-41.118 29.025-17.344 0-41.887-10.564-41.887-29.025v-65.131c0-18.472 24.543-27.141 41.887-27.141 16.219 0 41.118 8.668 41.118 27.141v65.131zm-41.118-132.618c-38.469.369-83.357 22.624-83.357 67.488v68.238c0 45.621 44.889 67.127 83.357 67.494 37.718-.367 82.606-21.873 82.606-67.494v-68.238c0-44.865-44.888-67.119-82.606-67.488" id="path4" style="fill:#5aa001;fill-opacity:1"/><path d="M566.081 241.835c0 18.461-24.906 29.025-41.125 29.025-17.344 0-41.881-10.564-41.881-29.025v-65.131c0-18.472 24.537-27.141 41.881-27.141 16.219 0 41.125 8.668 41.125 27.141v65.131zm-41.125-132.618c-38.457.369-83.346 22.624-83.346 67.488v68.238c0 45.621 44.889 67.127 83.346 67.494 37.706-.367 82.577-21.873 82.577-67.494v-68.238c0-44.865-44.871-67.119-82.577-67.488" id="path6" style="fill:#5aa001;fill-opacity:1"/><path d="M106.849 116.82c2.815-2.511 4.32-4.378 2.06-4.378-4.735 0-33.434 4.197-39.328-17.279-5.935-21.499 25.696-86.33 26.896-89.099C97.618 3.372 95.236 0 91.777 0c-3.407 0-5.906 3.665-6.269 4.121C53.227 44.269 8.198 94.396 2.374 115.995c-14.681 54.717 42.091 76.877 77.924 80.934.656.07.948-.428.948-.803v-19.434c.001-26.215 9.904-45.853 25.603-59.872" id="path8" style="fill:#5aa001;fill-opacity:1"/><path d="M438.502 124.067c-30.707-8.324-53.394-11.789-86.301-11.789-32.937-.005-55.683 3.465-86.331 11.76-1.451.339-1.727 1.814-1.059 2.716 10.489 8.674 14.885 20.252 16.939 33.34 16.846-4.103 32.035-6.497 49.688-7.486v158.49c0 .557.392.914 1.019.914h39.463c.685.059 1.018-.258 1-.879V152.637c16.986 1.013 31.163 3.383 47.892 7.457 2.528-13.017 7.843-25.128 18.596-33.258.962-1.177.131-2.482-.906-2.769" id="path10" style="fill:#5aa001;fill-opacity:1"/><path d="M732.894 110.604c-2.938-.41-11.643-1.662-19.321-1.381-37.772 1.446-80.488 23.747-80.488 67.47v134.82c-.024.561.392.895 1.001.895h39.457c.684.07 1.018-.223 1.006-.859v-3.523h.012V176.693c0-14.422 17.748-23.331 32.55-26.339 4.314-14.382 12.784-24.748 25.737-35.137 2.27-1.844 2.153-4.314.046-4.613" id="path12" style="fill:#5aa001;fill-opacity:1"/><path d="M221.31 188.212c0 .451-.169.879-.474 1.205a1.707 1.707 0 0 1-1.252.541h-75.66V176.2c0-18.729 22.278-27.509 39.884-27.509 16.436 0 37.526 8.78 37.526 27.509l-.024 12.012zm-37.502-80.447c-39 .387-81.934 22.945-81.934 68.436v69.229c0 46.27 42.934 68.08 81.934 68.465 27.932-.279 59.75-11.863 74.905-36.342.521-.82.053-1.891-.714-2.336-13.369-7.656-21.113-11.904-34.341-19.355-.421-.23-.866-.23-1.188.344-7.247 12.023-25.685 18.684-38.661 18.684-17.606 0-39.884-10.711-39.884-29.459v-20.668h108.157c5.765 0 10.459-4.695 10.459-10.473v-38.088c0-45.492-40.487-68.05-78.733-68.437" id="path14" style="fill:#5aa001;fill-opacity:1"/></g></svg>